#!OML:ASF I:\Actors\actors\Patient Classification 1\Patient 1\Session 1\Subject1.ASF
:FULLY-SPECIFIED
:DEGREES
719
root 0.146012 17.4766 7.87435 7.67504 -10.9442 -7.97682
lowerback -2.62695 -3.25421 2.09299
upperback -8.5588 -4.16236 3.86518
thorax -7.33656 -2.07846 3.04678
lowerneck -4.77415 3.52426 2.72914
upperneck 30.6806 1.72602 9.23435
head 10.5642 2.05069 3.02416
rclavicle 4.96962e-016 -2.70347e-014
rhumerus -52.1226 -1.00889 -76.3051
rradius 103.15
rwrist 60.6749
rhand -42.8702 -40.2688
rfingers 7.12502
rthumb -15.7333 -429.649
lclavicle 4.96962e-016 -2.70347e-014
lhumerus 77.7498 33.7624 148.808
lradius 12.1433
lwrist -127.06
lhand -49.396 -54.8218
lfingers 7.12502
lthumb -22.0093 -26.054
rfemur -10.5041 22.518 21.4692
rtibia 11.1286
rfoot -11.0966 -12.8778
rtoes -3.0609
lfemur 9.90775 -37.9013 -16.7952
ltibia -3.9526
lfoot -30.3361 51.8242
ltoes 17.9907
720
root 0.165473 17.4732 7.86561 7.73896 -11.2423 -7.84967
lowerback -2.59522 -3.25019 2.05562
upperback -8.54523 -4.16335 3.75766
thorax -7.34458 -2.08075 2.95598
lowerneck -4.40738 3.57889 2.45455
upperneck 29.9262 1.81291 9.65814
head 10.1893 2.07898 3.18794
rclavicle 2.37299e-014 -1.12313e-014
rhumerus -53.5704 -1.76116 -76.7124
rradius 103.037
rwrist 60.3629
rhand -42.5385 -43.0545
rfingers 7.12502
rthumb -15.4139 -432.46
lclavicle 2.37299e-014 -1.12313e-014
lhumerus 79.7951 34.6013 152.631
lradius 12.0207
lwrist -130.878
lhand -48.7098 -54.5312
lfingers 7.12502
lthumb -21.3503 -25.6873
rfemur -10.7039 22.6411 21.1695
rtibia 11.1503
rfoot -11.0512 -12.6921
rtoes -2.87421
lfemur 9.48966 -37.1014 -16.6916
ltibia -3.80052
lfoot -29.5623 51.4138
ltoes 17.7319
721
root 0.182113 17.4717 7.85831 7.82924 -11.4658 -7.83871
lowerback -2.59065 -3.16276 2.1308
upperback -8.55586 -4.05156 3.62237
thorax -7.37709 -2.03523 2.76954
lowerneck -5.81846 2.99777 2.12038
upperneck 31.1927 0.78749 9.78953
head 10.9956 1.641 3.2898
rclavicle 1.56667e-014 1.1281e-014
rhumerus -54.8717 -2.50806 -77.0578
rradius 102.955
rwrist 60.1816
rhand -41.9885 -44.3831
rfingers 7.12502
rthumb -14.8841 -433.828
lclavicle 1.56667e-014 1.1281e-014
lhumerus 81.7387 35.343 156.416
lradius 11.8685
lwrist -134.374
lhand -48.884 -54.6166
lfingers 7.12502
lthumb -21.5176 -25.7919
rfemur -10.8885 22.7407 21.0262
rtibia 11.1578
rfoot -10.9449 -12.5236
rtoes -2.82158
lfemur 9.16668 -36.582 -16.5338
ltibia -3.68631
lfoot -29.0943 51.1802
ltoes 17.5415
722
root 0.195715 17.4723 7.85411 7.92997 -11.6811 -7.79491
lowerback -2.61142 -3.0332 2.14501
upperback -8.5694 -3.88437 3.50217
thorax -7.39323 -1.95774 2.62883
lowerneck -6.29231 2.69989 2.21463
upperneck 31.4838 0.316187 9.66827
head 11.2338 1.43892 3.20397
rclavicle 5.67158e-015 -2.59911e-014
rhumerus -55.7581 -3.1904 -77.2062
rradius 102.844
rwrist 59.9583
rhand -41.6911 -45.6963
rfingers 7.12502
rthumb -14.5975 -435.163
lclavicle 5.67158e-015 -2.59911e-014
lhumerus 82.4307 35.8719 158.089
lradius 11.8225
lwrist -135.726
lhand -49.0478 -54.1548
lfingers 7.12502
lthumb -21.675 -25.3481
rfemur -11.0805 22.8496 20.8545
rtibia 11.1661
rfoot -10.8665 -12.3819
rtoes -2.84866
lfemur 8.96214 -36.3961 -16.537
ltibia -3.60398
lfoot -29.1535 51.1773
ltoes 17.6926
723
root 0.205515 17.4742 7.84963 8.00867 -11.9667 -7.708
lowerback -2.56537 -2.92285 2.02762
upperback -8.58503 -3.73937 3.45393
thorax -7.43533 -1.87958 2.64163
lowerneck -5.84124 2.55968 2.89664
upperneck 31.4707 0.434311 8.27594
head 11.1462 1.40205 2.56869
rclavicle 2.12948e-014 6.49032e-014
rhumerus -56.263 -3.559 -77.2896
rradius 102.733
rwrist 59.7026
rhand -41.604 -46.6418
rfingers 7.12502
rthumb -14.5136 -436.114
lclavicle 2.12948e-014 6.49032e-014
lhumerus 82.0947 36.2558 157.817
lradius 11.8057
lwrist -135.114
lhand -48.4495 -52.7897
lfingers 7.12502
lthumb -21.1003 -23.9177
rfemur -11.2857 22.9587 20.6459
rtibia 11.1995
rfoot -10.7859 -12.1978
rtoes -3.04972
lfemur 8.83854 -36.2915 -16.6477
ltibia -3.54807
lfoot -29.2591 51.3514
ltoes 17.6647
724
root 0.212896 17.477 7.84372 8.07917 -12.2598 -7.73663
lowerback -2.51387 -2.84022 1.97242
upperback -8.53691 -3.62832 3.47303
thorax -7.41063 -1.82016 2.68854
lowerneck -6.02116 2.68452 5.13029
upperneck 32.3567 1.16319 4.92202
head 11.5732 1.63324 1.05022
rclavicle 4.10863e-014 -3.54582e-014
rhumerus -56.3884 -3.65455 -77.4292
rradius 102.638
rwrist 59.425
rhand -41.5461 -47.2826
rfingers 7.12502
rthumb -14.4579 -436.759
lclavicle 4.10863e-014 -3.54582e-014
lhumerus 80.5142 36.3719 155.273
lradius 11.7407
lwrist -132.355
lhand -48.0196 -51.8712
lfingers 7.12502
lthumb -20.6872 -22.9537
rfemur -11.4494 23.134 20.5895
rtibia 11.2359
rfoot -10.7214 -12.0532
rtoes -3.47721
lfemur 8.75315 -36.2079 -16.6403
ltibia -3.49616
lfoot -29.2019 51.6266
ltoes 17.3578
725
root 0.219192 17.4792 7.83732 8.20033 -12.5182 -7.79832
lowerback -2.49971 -2.79803 1.95427
upperback -8.49321 -3.57075 3.52267
thorax -7.36862 -1.78896 2.74695
lowerneck -6.05625 2.65219 6.16538
upperneck 32.7541 1.47755 3.06853
head 11.7697 1.68944 0.224244
rclavicle -2.00089e-014 -6.68413e-015
rhumerus -56.268 -3.50175 -77.6405
rradius 102.603
rwrist 59.1172
rhand -41.3583 -48.0963
rfingers 7.12502
rthumb -14.2769 -437.586
lclavicle -2.00089e-014 -6.68413e-015
lhumerus 76.6372 35.9723 148.736
lradius 11.8206
lwrist -126.457
lhand -47.9206 -51.2595
lfingers 7.12502
lthumb -20.5921 -22.3317
rfemur -11.6445 23.2968 20.5508
rtibia 11.2442
rfoot -10.6662 -11.9294
rtoes -3.8399
lfemur 8.60017 -36.1773 -16.5576
ltibia -3.42294
lfoot -29.317 51.8584
ltoes 17.4102
726
root 0.222997 17.4804 7.83129 8.35041 -12.7278 -7.83894
lowerback -2.47907 -2.77788 1.95293
upperback -8.50653 -3.54199 3.55031
thorax -7.39423 -1.77374 2.77779
lowerneck -5.56259 2.77193 5.92154
upperneck 31.8588 1.65359 3.48955
head 11.3054 1.76664 0.420506
rclavicle 1.55549e-014 1.52816e-014
rhumerus -56.128 -3.23332 -77.8942
rradius 102.576
rwrist 58.8079
rhand -41.1961 -48.5983
rfingers 7.12502
rthumb -14.1206 -438.099
lclavicle 1.55549e-014 1.52816e-014
lhumerus 69.5825 34.1495 136.766
lradius 12.2862
lwrist -115.949
lhand -49.5712 -53.2357
lfingers 7.12502
lthumb -22.1775 -24.4879
rfemur -11.8362 23.4357 20.4699
rtibia 11.1761
rfoot -10.5853 -11.7971
rtoes -3.7069
lfemur 8.39756 -36.2106 -16.4622
ltibia -3.33999
lfoot -29.7844 51.986
ltoes 18.0423
727
root 0.224537 17.4805 7.82958 8.44582 -12.8765 -7.88128
lowerback -2.45203 -2.77806 1.99683
upperback -8.52358 -3.54061 3.5483
thorax -7.43155 -1.7761 2.75409
lowerneck -6.02556 2.52333 2.6634
upperneck 29.9852 0.305303 9.07964
head 10.6092 1.3723 2.83467
rclavicle 4.03781e-016 -4.12975e-014
rhumerus -55.9309 -2.98111 -78.1817
rradius 102.412
rwrist 58.5428
rhand -41.2045 -48.4593
rfingers 7.12502
rthumb -14.1287 -437.959
lclavicle 4.03781e-016 -4.12975e-014
lhumerus 60.744 29.7185 121.211
lradius 13.5356
lwrist -101.184
lhand -49.3704 -53.0642
lfingers 7.12502
lthumb -21.9847 -24.2936
rfemur -11.8661 23.5188 20.4334
rtibia 10.9819
rfoot -10.482 -11.6553
rtoes -3.81355
lfemur 8.27438 -36.1815 -16.3951
ltibia -3.27457
lfoot -30.0994 52.0714
ltoes 18.5398
728
root 0.224196 17.4797 7.83308 8.48053 -13.0014 -7.91238
lowerback -2.41789 -2.77003 2.07464
upperback -8.5434 -3.529 3.5067
thorax -7.48084 -1.777 2.67024
lowerneck -5.8997 2.43058 2.84314
upperneck 29.93 0.196759 8.91069
head 10.5717 1.31774 2.72591
rclavicle -3.42655e-014 -2.95816e-014
rhumerus -55.6547 -2.84858 -78.4865
rradius 102.052
rwrist 58.3587
rhand -41.2429 -47.9564
rfingers 7.12502
rthumb -14.1657 -437.453
lclavicle -3.42655e-014 -2.95816e-014
lhumerus 53.3553 23.5604 107.309
lradius 15.8311
lwrist -85.995
lhand -48.5578 -52.5982
lfingers 7.12502
lthumb -21.2043 -23.7379
rfemur -11.7464 23.4908 20.4399
rtibia 10.6731
rfoot -10.3338 -11.4914
rtoes -4.40811
lfemur 8.24499 -36.0027 -16.3705
ltibia -3.23111
lfoot -30.0015 52.1222
ltoes 18.5396
729
root 0.221221 17.4793 7.83863 8.49411 -13.142 -7.94769
lowerback -2.40483 -2.73129 2.1758
upperback -8.53467 -3.47819 3.44325
thorax -7.49049 -1.76101 2.54594
lowerneck -5.6571 2.43259 1.95857
upperneck 29.3491 0.00869095 10.3551
head 10.2968 1.26898 3.35664
rclavicle -7.84054e-015 -1.37092e-014
rhumerus -55.3831 -2.74774 -78.8568
rradius 101.662
rwrist 58.2567
rhand -40.9049 -47.8085
rfingers 7.12502
rthumb -13.84 -437.328
lclavicle -7.84054e-015 -1.37092e-014
lhumerus 48.1175 17.3273 96.8004
lradius 19.235
lwrist -72.325
lhand -47.9488 -52.8315
lfingers 7.12502
lthumb -20.6192 -23.9066
rfemur -11.5671 23.5556 20.4644
rtibia 10.3153
rfoot -10.2165 -11.3904
rtoes -4.4136
lfemur 8.24267 -35.8535 -16.3612
ltibia -3.13195
lfoot -30.1117 52.1246
ltoes 18.6479
